# xmcd
#
# Track frame offsets:
#	150
#	15124
#	33273
#	53996
#	74477
#	92030
#	106293
#	120257
#	136382
#	149549
#	165484
#	188267
#	207316
#	230360
#	244982
#	259533
#	281239
#	295140
#	313173
#	326686
#	342317
#
# Disc length: 4771 seconds
#
# Revision: 1
# Processed by: cddbd v1.5.2PL0 Copyright (c) Steve Scherf et al.
# Submitted via: FairStars CD Ripper 1.90
#
DISCID=3012a115
DTITLE=Various Artist - The Sounds of Indigenous Australia Now
DYEAR=2017
DGENRE=Other
TTITLE0=A.B. Original - January 26
TTITLE1=Yirrmal - Mayangan
TTITLE2=Emily Wurramara - Black Smoke
TTITLE3=Gawurra - Wunybul global vine of love
TTITLE4=Thelma Plum - How much does your love cost
TTITLE5=Kuren - Home
TTITLE6=Birdz - Black lives matter
TTITLE7=Ziggy Ramo - Black Face
TTITLE8=Apaktjah - Waru
TTITLE9=Cash Williams - How can I live
TTITLE10=Eleanor Dixon - My spirit is free
TTITLE11=Dan Sultan - Kimberly Calling
TTITLE12=Emma Donovan and The Putbacks - Black Woman
TTITLE13=Jessica Mauboy - Risk it
TTITLE14=Benny Walker - Save
TTITLE15=Luke Daniel Peacock - Dreambox
TTITLE16=Busby Marou - Best part of me
TTITLE17=Leah Flanagan - Chills
TTITLE18=Robbie Miller - The pain
TTITLE19=Tia Gostello - Vague utopia
TTITLE20=Electric Fields - Shade away
EXTD=
EXTT0=
EXTT1=
EXTT2=
EXTT3=
EXTT4=
EXTT5=
EXTT6=
EXTT7=
EXTT8=
EXTT9=
EXTT10=
EXTT11=
EXTT12=
EXTT13=
EXTT14=
EXTT15=
EXTT16=
EXTT17=
EXTT18=
EXTT19=
EXTT20=
PLAYORDER=
